<svg width="32" height="32" viewBox="0 0 32 32" fill="none" xmlns="http://www.w3.org/2000/svg">
<path d="M0 7.7071C0 7.57449 0.0526784 7.44732 0.146447 7.35355L7.14644 0.353553C7.3417 0.158291 7.65829 0.158291 7.85355 0.353553L14.8535 7.35355C14.9473 7.44732 15 7.57449 15 7.7071V14.5C15 14.7761 14.7761 15 14.5 15H0.5C0.223858 15 0 14.7761 0 14.5V7.7071Z" fill="url(#blue-house)"/>
<path d="M17 7.5C17 3.35786 20.3578 0 24.5 0C28.6421 0 32 3.35786 32 7.5C32 11.6421 28.6421 15 24.5 15H17.5C17.2238 15 17 14.7761 17 14.5V7.5Z" fill="url(#green-bubble)"/>
<path d="M17 17.5C17 17.2239 17.2238 17 17.5 17H24.5C28.6421 17 32 20.3579 32 24.5C32 28.6421 28.6421 32 24.5 32H17.5C17.2238 32 17 31.7761 17 31.5V17.5Z" fill="url(#yellow-door)"/>
<path d="M15 17.5C15 17.2239 14.7761 17 14.5 17H0.5C0.223858 17 0 17.2239 0 17.5V24C0 24.2761 0.224554 24.4983 0.5001 24.5164C4.24377 24.7629 7.23713 27.7562 7.48359 31.4999C7.50173 31.7754 7.72385 32 8 32H14.5C14.7761 32 15 31.7761 15 31.5V17.5Z" fill="url(#red-diamond)"/>
<defs>
<linearGradient id="blue-house" x1="7.5" y1="0" x2="7.5" y2="15" gradientUnits="userSpaceOnUse"><stop stop-color="#4EC0ED"/><stop offset="1" stop-color="#1F9BE5"/></linearGradient>
<linearGradient id="green-bubble" x1="24.5" y1="0" x2="24.5" y2="15" gradientUnits="userSpaceOnUse"><stop stop-color="#4CE08A"/><stop offset="1" stop-color="#00C18F"/></linearGradient>
<linearGradient id="yellow-door" x1="24.5" y1="17" x2="24.5" y2="32" gradientUnits="userSpaceOnUse"><stop stop-color="#EDBC4E"/><stop offset="1" stop-color="#F79318"/></linearGradient>
<linearGradient id="red-diamond" x1="7.5" y1="17" x2="7.5" y2="32" gradientUnits="userSpaceOnUse"><stop stop-color="#ED4E71"/><stop offset="1" stop-color="#F44C3C"/></linearGradient>
</defs>
</svg>
